<?xml version="1.0" standalone="no"?>
<!DOCTYPE svg PUBLIC "-//W3C//DTD SVG 20010904//EN"
 "http://www.w3.org/TR/2001/REC-SVG-20010904/DTD/svg10.dtd">
<svg version="1.0" xmlns="http://www.w3.org/2000/svg"
 width="1454.000000pt" height="1065.000000pt" viewBox="0 0 1454.000000 1065.000000"
 preserveAspectRatio="xMidYMid meet">

<g transform="translate(0.000000,1065.000000) scale(0.100000,-0.100000)"
fill="#000000" stroke="none">
<path d="M7045 10483 c-322 -16 -692 -89 -1001 -196 -933 -326 -1708 -1053
-2092 -1962 -336 -795 -373 -1679 -106 -2498 293 -895 940 -1646 1784 -2067
723 -361 1529 -465 2326 -299 855 177 1622 678 2145 1399 541 745 768 1689
629 2610 -23 155 -68 362 -80 374 -6 6 -6 -4 0 -25 32 -118 45 -281 45 -569 0
-258 -3 -314 -24 -450 -49 -326 -143 -633 -285 -925 -258 -532 -620 -945
-1111 -1270 -807 -535 -1816 -667 -2740 -360 -633 210 -1186 618 -1574 1160
-334 466 -532 1003 -582 1575 -13 150 -7 533 11 665 18 130 66 361 104 492
273 949 1000 1732 1929 2079 507 190 1075 249 1592 164 185 -30 134 -9 -86 36
-281 57 -602 81 -884 67z"/>
<path d="M9484 8231 c-19 -9 -56 -48 -79 -84 -6 -9 -63 -32 -130 -53 -66 -19
-313 -94 -550 -166 -236 -72 -438 -133 -447 -135 -10 -3 -18 -11 -18 -18 0
-11 69 -247 74 -252 1 -1 166 47 366 108 201 61 459 139 575 173 l209 63 31
-18 c47 -29 98 -25 140 12 19 17 35 37 35 45 0 8 14 26 31 41 40 36 59 73 59
115 0 66 -70 138 -134 138 -16 0 -37 7 -47 16 -21 19 -86 27 -115 15z"/>
<path d="M7335 8120 c-331 -102 -347 -109 -361 -165 -3 -14 26 -130 76 -297
45 -150 118 -394 162 -543 44 -148 91 -307 104 -352 30 -100 57 -127 119 -121
22 3 117 28 210 57 94 29 229 70 300 92 147 44 175 64 175 126 0 20 -34 149
-75 287 -41 138 -124 413 -183 611 -104 351 -108 360 -141 382 -19 13 -41 23
-50 22 -9 -1 -160 -45 -336 -99z"/>
<path d="M8008 7773 c-30 -3 -48 -9 -48 -17 0 -14 108 -377 113 -383 2 -2 47
22 99 52 l95 56 -22 77 c-12 42 -32 110 -44 150 l-22 72 -62 -2 c-34 -1 -83
-3 -109 -5z"/>
<path d="M6991 7414 c-27 -35 -26 -89 2 -179 18 -55 30 -74 56 -92 33 -23 81
-31 81 -15 0 5 -20 75 -45 156 -25 82 -45 150 -45 152 0 14 -32 0 -49 -22z"/>
<path d="M6635 6495 l-25 -24 0 -370 c0 -203 3 -377 6 -386 18 -45 22 -45 767
-45 484 0 714 3 735 11 24 8 43 30 79 91 102 171 246 303 428 392 87 43 226
88 313 101 60 9 72 32 72 130 0 57 -5 87 -16 103 l-15 22 -1160 0 -1160 0 -24
-25z"/>
<path d="M5256 6409 c-46 -54 -32 -93 72 -190 223 -211 593 -369 1022 -439 69
-11 131 -20 138 -20 9 0 12 75 12 340 l0 340 -609 0 -609 0 -26 -31z"/>
<path d="M6835 5561 c-3 -5 -1 -12 5 -16 18 -11 50 -137 50 -199 -1 -242 -196
-434 -512 -503 l-78 -16 0 -79 0 -78 1095 0 1095 0 0 79 0 78 -62 13 c-218 42
-410 165 -482 308 -52 103 -62 229 -26 328 12 32 24 67 27 77 5 16 -26 17
-550 17 -332 0 -558 -4 -562 -9z"/>
<path d="M2715 3009 c-221 -29 -377 -123 -441 -264 -54 -118 -54 -363 1 -482
87 -190 333 -286 695 -270 231 10 380 58 485 158 89 84 125 186 125 354 0 270
-119 420 -384 486 -95 23 -367 34 -481 18z m295 -310 c134 -21 180 -71 180
-194 0 -86 -21 -131 -76 -162 -54 -30 -162 -46 -257 -38 -172 14 -237 69 -237
199 0 63 12 101 43 135 54 59 201 84 347 60z"/>
<path d="M4275 3009 c-221 -29 -377 -123 -441 -264 -54 -118 -54 -363 1 -482
87 -190 333 -286 695 -270 231 10 380 58 485 158 89 84 125 186 125 354 0 270
-119 420 -384 486 -95 23 -367 34 -481 18z m295 -310 c134 -21 180 -71 180
-194 0 -86 -21 -131 -76 -162 -54 -30 -162 -46 -257 -38 -172 14 -237 69 -237
199 0 63 12 101 43 135 54 59 201 84 347 60z"/>
<path d="M8905 3009 c-221 -29 -377 -123 -441 -264 -54 -118 -54 -363 1 -482
87 -190 333 -286 695 -270 231 10 380 58 485 158 89 84 125 186 125 354 0 270
-119 420 -384 486 -95 23 -367 34 -481 18z m295 -310 c134 -21 180 -71 180
-194 0 -86 -21 -131 -76 -162 -54 -30 -162 -46 -257 -38 -172 14 -237 69 -237
199 0 63 12 101 43 135 54 59 201 84 347 60z"/>
<path d="M12005 3009 c-87 -11 -193 -43 -259 -76 -76 -39 -158 -127 -185 -198
-54 -145 -50 -361 9 -481 89 -182 335 -277 670 -261 165 9 292 49 378 122 l30
25 6 -27 c2 -16 8 -49 11 -75 l6 -48 95 0 94 0 0 280 0 280 -335 0 -336 0 3
-82 3 -83 155 -5 155 -5 -47 -28 c-64 -39 -208 -55 -338 -39 -155 19 -210 69
-210 191 0 151 75 205 285 205 127 0 182 -13 229 -54 l34 -30 202 0 203 0 -6
37 c-11 63 -64 157 -117 207 -61 57 -169 109 -270 131 -90 19 -365 28 -465 14z"/>
<path d="M260 2500 l0 -490 195 0 195 0 2 257 3 257 189 -257 188 -257 97 0
97 0 189 258 190 259 3 -259 2 -258 190 0 190 0 0 490 0 490 -239 0 -239 0
-187 -240 c-104 -132 -192 -240 -196 -240 -4 0 -92 108 -195 240 l-188 240
-243 0 -243 0 0 -490z"/>
<path d="M5360 2500 l0 -490 195 0 195 0 2 296 3 295 260 -295 260 -296 218 0
217 0 0 490 0 490 -195 0 -195 0 0 -256 0 -256 -212 256 -213 255 -267 1 -268
0 0 -490z"/>
<path d="M7040 2500 l0 -490 195 0 195 0 0 130 0 130 360 0 360 0 0 145 0 145
-360 0 -360 0 0 60 0 60 410 0 410 0 0 155 0 155 -605 0 -605 0 0 -490z"/>
<path d="M9990 2500 l0 -490 195 0 195 0 0 120 0 120 172 -2 172 -3 91 -117
90 -118 203 0 c190 0 202 1 193 18 -6 9 -53 71 -104 137 l-94 119 41 26 c191
122 227 388 75 555 -33 36 -74 66 -117 87 l-67 33 -522 3 -523 3 0 -491z m915
175 c16 -15 25 -36 25 -55 0 -19 -9 -40 -25 -55 l-24 -25 -251 0 -250 0 0 80
0 80 250 0 251 0 24 -25z"/>
<path d="M13140 2500 l0 -490 580 0 580 0 0 125 0 125 -385 0 -385 0 0 65 0
65 385 0 385 0 0 115 0 115 -385 0 -385 0 0 60 0 60 385 0 385 0 0 125 0 125
-580 0 -580 0 0 -490z"/>
<path d="M5745 1209 c-87 -11 -193 -43 -259 -76 -76 -39 -158 -127 -185 -198
-54 -145 -50 -361 9 -481 89 -182 335 -277 670 -261 165 9 292 49 378 122 l30
25 6 -27 c2 -16 8 -49 11 -75 l6 -48 95 0 94 0 0 280 0 280 -335 0 -336 0 3
-82 3 -83 155 -5 155 -5 -47 -28 c-64 -39 -208 -55 -338 -39 -155 19 -210 69
-210 191 0 151 75 205 285 205 127 0 182 -13 229 -54 l34 -30 202 0 203 0 -6
37 c-11 63 -64 157 -117 207 -61 57 -169 109 -270 131 -90 19 -365 28 -465 14z"/>
<path d="M3080 700 l0 -490 473 0 c509 0 522 1 626 55 116 59 215 198 242 340
48 258 -112 519 -352 574 -26 6 -235 11 -516 11 l-473 0 0 -490z m875 160 c58
-28 85 -79 85 -162 0 -71 -20 -112 -73 -152 -27 -20 -43 -21 -263 -24 l-234
-3 0 180 0 181 222 0 c201 0 225 -2 263 -20z"/>
<path d="M4650 700 l0 -490 195 0 195 0 0 490 0 490 -195 0 -195 0 0 -490z"/>
<path d="M6890 700 l0 -490 195 0 195 0 0 490 0 490 -195 0 -195 0 0 -490z"/>
<path d="M7510 1035 l0 -155 230 0 230 0 0 -335 0 -335 195 0 195 0 0 335 0
335 225 0 225 0 0 155 0 155 -650 0 -650 0 0 -155z"/>
<path d="M8931 706 c-144 -267 -261 -488 -261 -491 0 -3 96 -5 214 -5 l214 0
38 85 38 85 247 0 246 0 38 -85 38 -85 214 0 c117 0 213 3 213 8 0 4 -117 223
-259 487 l-259 480 -230 3 -230 2 -261 -484z m558 57 c33 -72 61 -134 61 -137
0 -3 -58 -6 -130 -6 -71 0 -130 2 -130 4 0 10 131 279 134 275 2 -2 31 -63 65
-136z"/>
<path d="M10310 700 l0 -490 580 0 580 0 0 155 0 155 -385 0 -385 0 0 335 0
335 -195 0 -195 0 0 -490z"/>
</g>
</svg>
