<?xml version="1.0" standalone="no"?>
<!DOCTYPE svg PUBLIC "-//W3C//DTD SVG 20010904//EN"
 "http://www.w3.org/TR/2001/REC-SVG-20010904/DTD/svg10.dtd">
<svg version="1.0" xmlns="http://www.w3.org/2000/svg"
 width="1080.000000pt" height="1080.000000pt" viewBox="0 0 1080.000000 1080.000000"
 preserveAspectRatio="xMidYMid meet">

<g transform="translate(0.000000,1080.000000) scale(0.100000,-0.100000)"
fill="#000000" stroke="none">
<path d="M0 5400 l0 -5400 5400 0 5400 0 0 5400 0 5400 -5400 0 -5400 0 0
-5400z m5634 3889 c174 -20 456 -76 456 -91 0 -11 -21 -10 -87 6 -32 8 -136
20 -230 27 -215 15 -459 0 -633 -38 -63 -14 -126 -27 -140 -30 -82 -15 -307
-100 -460 -172 -80 -39 -234 -131 -319 -193 -40 -29 -90 -64 -109 -77 -54 -36
-352 -339 -395 -401 -21 -30 -57 -82 -80 -115 -165 -235 -309 -564 -363 -830
-11 -53 -25 -139 -29 -173 -3 -20 -10 -71 -16 -112 -16 -102 -14 -376 2 -480
7 -47 12 -88 11 -92 -1 -4 5 -40 14 -80 8 -40 17 -85 19 -101 2 -15 9 -42 15
-61 6 -18 12 -42 15 -52 24 -111 90 -281 168 -436 277 -547 707 -935 1287
-1161 129 -51 345 -109 450 -122 30 -3 105 -13 165 -22 80 -11 154 -14 270
-10 155 5 212 11 400 43 113 20 290 67 350 94 11 5 49 20 85 33 252 94 545
282 773 496 89 83 236 259 314 376 202 300 330 625 389 990 36 223 25 639 -21
818 -5 17 -3 27 4 27 6 0 13 -10 15 -22 3 -13 12 -54 20 -93 19 -89 42 -219
56 -312 13 -92 13 -512 0 -606 -53 -373 -120 -597 -269 -896 -138 -278 -272
-463 -506 -696 -137 -137 -224 -210 -390 -330 -161 -116 -485 -274 -680 -332
-166 -49 -229 -65 -340 -84 -186 -33 -317 -41 -565 -36 -336 8 -562 52 -890
172 -180 66 -545 274 -671 383 -24 21 -61 50 -82 66 -115 85 -339 327 -463
501 -109 153 -249 408 -295 536 -12 35 -26 69 -29 74 -19 26 -91 279 -114 400
-46 238 -46 240 -46 543 0 302 1 309 46 547 28 147 101 381 161 515 41 93 139
281 177 340 23 36 45 72 49 80 4 8 26 40 50 71 23 31 62 83 86 115 65 87 312
335 421 423 132 105 207 157 372 251 107 61 289 147 363 170 22 7 45 16 50 20
6 4 37 14 70 24 33 9 80 22 105 30 103 31 269 64 435 84 101 13 452 14 559 1z
m1521 -1699 c3 -5 19 -10 34 -10 15 0 43 -10 62 -23 32 -21 34 -27 37 -83 3
-54 0 -63 -24 -88 -15 -15 -32 -36 -38 -48 -6 -11 -28 -30 -48 -42 l-38 -21
-39 21 c-38 21 -40 21 -85 3 -26 -9 -88 -29 -139 -43 -150 -42 -201 -58 -227
-71 -14 -7 -41 -16 -60 -20 -19 -4 -53 -13 -75 -20 -22 -7 -76 -23 -120 -35
-44 -12 -84 -25 -90 -29 -10 -6 -93 -30 -107 -31 -3 0 -9 15 -13 33 -8 42 -35
127 -47 151 -5 10 -6 22 -1 26 15 15 252 89 388 121 21 6 44 14 50 19 6 5 29
13 50 19 88 21 232 63 260 76 17 8 45 17 64 21 22 4 47 21 69 45 32 35 40 39
83 39 26 0 51 -4 54 -10z m-1394 -29 c16 -16 29 -38 29 -49 0 -20 26 -112 41
-147 9 -21 33 -102 64 -215 10 -36 30 -103 45 -150 16 -47 36 -114 45 -150 10
-36 31 -104 48 -152 26 -78 28 -91 17 -119 -15 -35 -40 -48 -150 -79 -41 -12
-91 -28 -110 -36 -19 -7 -60 -20 -90 -28 -30 -8 -80 -22 -110 -30 -133 -38
-141 -27 -255 394 -9 36 -23 79 -30 95 -7 17 -21 59 -30 95 -10 36 -37 129
-61 207 -24 77 -44 157 -44 175 0 46 29 71 105 93 33 9 74 23 90 30 28 12 55
20 205 62 30 8 66 19 80 23 50 16 81 11 111 -19z m343 -341 c9 -22 16 -48 16
-58 0 -9 7 -30 15 -45 19 -38 30 -97 17 -97 -5 0 -33 -16 -62 -35 -52 -35
-103 -55 -99 -39 2 5 -3 27 -10 49 -7 22 -16 56 -21 75 -4 19 -19 66 -33 105
-14 38 -23 73 -21 77 3 5 45 8 94 8 l88 0 16 -40z m-864 -230 c0 -11 4 -29 9
-42 16 -42 45 -143 48 -170 4 -25 1 -28 -26 -28 -56 0 -105 85 -105 184 -1 29
6 44 27 62 31 26 47 24 47 -6z m1468 -692 c7 -7 12 -41 12 -84 0 -77 -11 -100
-53 -108 -262 -51 -442 -168 -558 -364 -53 -88 -4 -82 -622 -82 l-548 0 -24
25 -25 24 0 277 c0 271 0 278 22 301 l21 23 882 0 c672 0 884 -3 893 -12z
m-1869 -314 l1 -267 -72 7 c-40 4 -74 11 -76 16 -2 6 -16 10 -31 10 -37 0
-328 76 -346 90 -5 4 -50 26 -100 47 -107 46 -241 137 -307 206 -40 42 -48 57
-48 88 0 71 -14 69 512 69 l467 0 0 -266z m1091 -388 c0 -2 -11 -29 -25 -60
-93 -210 69 -423 368 -485 l57 -12 0 -65 0 -64 -835 0 -835 0 0 64 c0 71 -2
69 75 81 65 11 166 54 230 98 69 49 106 108 132 212 16 66 16 68 -8 138 -13
40 -25 78 -27 85 -3 9 89 12 432 12 240 0 436 -2 436 -4z m-3595 -1951 c212
-56 297 -179 283 -408 -11 -175 -98 -275 -281 -324 -80 -22 -355 -25 -437 -4
-91 22 -175 67 -219 117 -59 67 -76 127 -75 259 0 96 3 117 25 165 14 30 38
69 52 86 49 58 173 110 307 128 66 8 285 -3 345 -19z m1173 0 c134 -32 225
-102 262 -203 19 -49 21 -74 18 -182 -3 -118 -5 -128 -34 -180 -72 -127 -229
-190 -474 -190 -194 1 -335 45 -414 130 -71 76 -80 105 -80 255 -1 115 2 136
22 180 52 114 161 181 334 205 85 12 289 4 366 -15z m3490 0 c134 -32 225
-102 262 -203 19 -49 21 -74 18 -182 -3 -118 -5 -128 -34 -180 -72 -127 -229
-190 -474 -190 -194 1 -335 45 -414 130 -71 76 -80 105 -80 255 -1 115 2 136
22 180 52 114 161 181 334 205 85 12 289 4 366 -15z m2336 0 c157 -42 240
-113 274 -237 l10 -38 -154 0 c-141 0 -157 2 -183 21 -36 26 -89 38 -171 39
-88 0 -138 -16 -178 -56 -34 -34 -34 -36 -30 -105 3 -63 7 -74 31 -95 39 -33
88 -44 201 -44 107 0 166 13 192 42 17 17 13 18 -99 18 l-117 0 0 60 0 60 255
0 255 0 0 -210 0 -210 -74 0 -73 0 -7 31 c-3 17 -6 42 -6 55 0 28 -12 31 -31
8 -41 -50 -192 -94 -324 -94 -230 0 -389 66 -459 190 -31 54 -31 57 -31 195 0
122 3 146 21 185 44 94 150 166 279 189 33 6 71 13 85 15 51 9 277 -4 334 -19z
m-8712 -179 c79 -102 145 -185 148 -185 3 -1 70 82 149 184 l145 185 178 0
178 0 0 -375 0 -376 -142 3 -143 3 -5 191 -5 191 -141 -191 -140 -191 -71 -3
-71 -3 -144 196 -143 196 -5 -193 -5 -193 -140 0 -140 0 -3 360 c-1 198 0 366
3 372 3 10 48 13 179 13 l175 0 143 -184z m3900 -12 l163 -196 3 196 2 197
143 -3 142 -3 0 -370 0 -370 -160 -3 -160 -2 -200 227 -200 227 -3 -227 -2
-228 -143 3 -142 3 -3 360 c-1 198 0 366 3 372 3 10 52 13 199 13 l194 0 164
-196z m1616 74 l3 -118 -311 0 -310 0 0 -45 0 -45 270 0 270 0 0 -110 0 -110
-270 0 -269 0 -3 -97 -3 -98 -140 0 -140 0 -3 360 c-1 198 0 366 3 373 3 10
98 12 452 10 l448 -3 3 -117z m2144 94 c58 -29 111 -80 140 -135 32 -59 32
-184 1 -242 -21 -40 -97 -118 -123 -127 -9 -3 12 -36 63 -101 42 -53 77 -101
77 -106 0 -7 -51 -11 -149 -11 l-148 0 -73 95 -72 96 -127 -3 -126 -3 -3 -93
-3 -93 -142 3 -142 3 -3 360 c-1 198 0 366 3 373 4 11 77 13 392 10 382 -3
389 -3 435 -26z m2413 -72 l0 -95 -287 -3 -288 -2 0 -45 0 -45 290 0 290 0 0
-85 0 -85 -290 0 -290 0 0 -45 0 -45 288 -2 287 -3 0 -95 0 -95 -432 -3 -433
-2 0 375 0 375 433 -2 432 -3 0 -95z m-6050 -1270 c141 -45 219 -121 249 -242
l6 -28 -155 0 c-142 0 -158 2 -177 20 -34 31 -94 43 -198 38 -146 -6 -190 -41
-190 -148 0 -114 51 -145 240 -145 100 0 131 4 157 17 59 33 49 38 -72 38
l-116 0 3 63 3 62 250 0 250 0 3 -212 2 -213 -74 0 -75 0 -6 55 c-4 30 -9 55
-11 55 -2 0 -23 -14 -46 -30 -126 -91 -393 -104 -596 -28 -80 30 -165 115
-186 188 -20 68 -21 230 -2 294 30 100 107 172 225 211 86 28 146 34 301 30
114 -3 160 -8 215 -25z m-1631 -10 c51 -16 79 -33 124 -75 206 -190 138 -541
-121 -629 -41 -14 -102 -16 -412 -16 l-365 0 0 363 c0 200 3 367 7 370 3 4
163 7 354 7 321 0 352 -2 413 -20z m706 -350 l0 -370 -145 0 -145 0 0 370 0
370 145 0 145 0 0 -370z m1690 0 l0 -370 -145 0 -145 0 0 370 0 370 145 0 145
0 0 -370z m1150 250 l0 -120 -170 0 -170 0 0 -250 0 -250 -145 0 -145 0 0 250
0 250 -175 0 -175 0 0 113 c0 63 3 117 7 120 3 4 224 7 490 7 l483 0 0 -120z
m644 98 c11 -18 312 -576 375 -695 l12 -23 -164 0 -163 0 -30 63 -29 62 -183
3 -183 2 -30 -65 -31 -65 -164 0 -165 0 24 43 c14 23 91 166 172 317 81 151
161 299 177 328 l29 52 170 0 c164 0 169 -1 183 -22z m784 -235 l2 -253 285 0
285 0 0 -115 0 -115 -435 0 -435 0 0 363 c0 200 3 367 7 371 4 3 70 5 147 4
l141 -3 3 -252z"/>
<path d="M1986 3413 c-68 -25 -88 -55 -88 -132 0 -117 43 -146 212 -146 126 0
158 10 193 57 28 37 33 114 10 158 -29 55 -70 73 -182 77 -74 3 -107 -1 -145
-14z"/>
<path d="M3181 3421 c-72 -19 -111 -67 -111 -139 0 -105 52 -144 196 -150 102
-4 161 8 201 42 23 20 27 33 31 88 8 121 -38 160 -193 164 -49 2 -105 -1 -124
-5z"/>
<path d="M6671 3421 c-72 -19 -111 -67 -111 -139 0 -105 52 -144 196 -150 102
-4 161 8 201 42 23 20 27 33 31 88 8 121 -38 160 -193 164 -49 2 -105 -1 -124
-5z"/>
<path d="M7744 3416 c-3 -7 -4 -35 -2 -62 l3 -49 188 0 c186 0 189 0 208 24
25 31 24 47 -6 76 -24 25 -26 25 -205 25 -144 0 -182 -3 -186 -14z"/>
<path d="M2540 1914 l0 -136 174 4 c200 3 220 11 245 87 18 57 7 107 -34 148
l-33 33 -176 0 -176 0 0 -136z"/>
<path d="M6968 1960 l-46 -100 99 0 99 0 -24 53 c-39 88 -70 147 -75 147 -4 0
-27 -45 -53 -100z"/>
</g>
</svg>
