<?xml version="1.0" standalone="no"?>
<!DOCTYPE svg PUBLIC "-//W3C//DTD SVG 20010904//EN"
 "http://www.w3.org/TR/2001/REC-SVG-20010904/DTD/svg10.dtd">
<svg version="1.0" xmlns="http://www.w3.org/2000/svg"
 width="1080.000000pt" height="1080.000000pt" viewBox="0 0 1080.000000 1080.000000"
 preserveAspectRatio="xMidYMid meet">

<g transform="translate(0.000000,1080.000000) scale(0.100000,-0.100000)"
fill="#000000" stroke="none">
<path d="M5215 9294 c-793 -58 -1467 -406 -1946 -1006 -285 -357 -470 -774
-550 -1239 -27 -158 -38 -544 -19 -712 100 -929 672 -1736 1515 -2138 695
-331 1517 -344 2220 -33 578 255 1037 690 1321 1255 280 556 352 1175 214
1817 -19 86 -22 52 -6 -59 54 -371 10 -783 -119 -1136 -52 -142 -173 -382
-250 -498 -375 -562 -937 -928 -1606 -1045 -157 -28 -458 -38 -620 -21 -1080
112 -1936 910 -2124 1982 -23 132 -38 366 -31 499 37 705 355 1327 906 1771
242 194 586 363 905 443 319 80 702 92 1005 31 18 -4 21 -3 10 4 -22 13 -197
48 -330 65 -116 15 -403 27 -495 20z"/>
<path d="M7041 7572 c-15 -15 -30 -32 -32 -38 -2 -6 -96 -39 -209 -74 -438
-132 -652 -198 -655 -202 -2 -2 10 -48 26 -101 28 -90 32 -97 52 -91 12 4 101
31 197 60 96 29 281 84 410 124 231 70 236 71 269 55 42 -20 85 -12 109 21 9
14 32 43 50 65 43 55 44 108 3 150 -18 18 -40 29 -58 29 -15 0 -37 7 -47 15
-32 25 -84 19 -115 -13z"/>
<path d="M5458 7515 c-131 -40 -245 -78 -254 -86 -39 -32 -37 -43 107 -525 78
-258 146 -475 152 -482 28 -35 51 -32 296 43 133 40 251 81 261 90 12 11 20
31 20 50 0 18 -34 147 -76 286 -215 721 -200 680 -249 692 -11 3 -127 -28
-257 -68z"/>
<path d="M5983 7253 c-35 -2 -63 -9 -63 -14 0 -14 79 -281 85 -287 2 -3 36 14
76 38 51 30 70 46 66 58 -3 10 -17 61 -33 115 -24 84 -30 97 -48 95 -12 -1
-49 -3 -83 -5z"/>
<path d="M5186 6978 c-20 -28 -20 -46 0 -116 16 -60 51 -102 85 -102 25 0 25
6 -13 132 -32 112 -44 126 -72 86z"/>
<path d="M4926 6289 l-26 -20 0 -278 c0 -234 2 -280 16 -299 l15 -22 550 0
c346 0 557 4 569 10 10 5 33 35 51 66 44 78 147 185 231 241 79 52 191 98 285
118 35 7 71 19 79 25 20 18 20 143 -2 164 -14 14 -107 16 -878 16 -858 0 -863
0 -890 -21z"/>
<path d="M3875 6216 c-24 -36 -10 -68 59 -134 178 -172 458 -287 844 -347 l42
-7 0 256 0 256 -465 0 -465 0 -15 -24z"/>
<path d="M5070 5586 c0 -2 9 -25 21 -51 29 -66 24 -189 -11 -258 -58 -115
-192 -199 -382 -241 -27 -6 -28 -9 -28 -66 l0 -60 825 0 825 0 0 60 c0 57 -1
60 -27 65 -82 16 -195 60 -250 95 -113 74 -167 167 -167 290 -1 57 5 87 21
123 l22 47 -425 0 c-233 0 -424 -2 -424 -4z"/>
<path d="M1974 3660 c-91 -13 -142 -28 -207 -63 -68 -35 -101 -71 -136 -147
-22 -48 -25 -68 -25 -165 -1 -144 18 -200 88 -271 91 -90 248 -131 466 -120
186 8 280 39 365 117 69 63 89 122 89 259 1 146 -17 204 -83 270 -82 82 -192
118 -381 125 -63 2 -143 0 -176 -5z m286 -256 c50 -29 72 -76 66 -143 -9 -98
-66 -131 -222 -131 -152 1 -209 43 -208 151 2 116 56 150 234 146 74 -2 103
-7 130 -23z"/>
<path d="M3145 3660 c-185 -30 -284 -90 -337 -205 -20 -43 -23 -66 -23 -170 0
-142 16 -195 79 -263 76 -83 182 -120 371 -129 266 -13 442 51 519 187 29 52
31 62 34 180 3 108 1 133 -18 182 -37 101 -129 171 -262 203 -79 19 -284 27
-363 15z m288 -254 c53 -26 70 -64 65 -144 -4 -55 -8 -68 -31 -88 -40 -34 -99
-46 -201 -42 -152 6 -203 50 -194 165 5 63 31 95 94 119 55 20 216 14 267 -10z"/>
<path d="M6635 3660 c-185 -30 -284 -90 -337 -205 -20 -43 -23 -66 -23 -170 0
-142 16 -195 79 -263 76 -83 182 -120 371 -129 266 -13 442 51 519 187 29 52
31 62 34 180 3 108 1 133 -17 180 -38 101 -131 173 -263 205 -79 19 -284 27
-363 15z m288 -254 c53 -26 70 -64 65 -144 -4 -55 -8 -68 -31 -88 -40 -34 -99
-46 -201 -42 -152 6 -203 50 -194 165 5 63 31 95 94 119 55 20 216 14 267 -10z"/>
<path d="M9005 3663 c-155 -18 -251 -59 -319 -134 -59 -66 -76 -122 -76 -255
0 -81 5 -116 21 -160 37 -99 120 -164 254 -199 86 -22 256 -30 342 -16 75 13
178 56 202 84 19 24 31 21 31 -7 0 -13 3 -38 6 -55 l7 -31 73 0 74 0 0 210 0
210 -255 0 -255 0 0 -60 0 -60 117 0 c112 0 116 -1 99 -18 -26 -29 -85 -42
-192 -42 -118 0 -168 12 -206 50 -25 25 -28 36 -28 90 0 75 18 112 66 135 79
37 247 32 309 -11 34 -23 43 -24 190 -24 l154 0 -14 47 c-30 100 -111 179
-219 212 -110 34 -266 48 -381 34z"/>
<path d="M120 3275 l0 -365 145 0 145 0 2 190 3 191 139 -191 140 -190 77 0
77 0 138 189 139 189 3 -189 2 -189 145 0 145 0 0 365 0 365 -182 0 -183 0
-140 -180 c-77 -99 -142 -180 -145 -179 -3 0 -68 81 -144 179 l-139 180 -184
0 -183 0 0 -365z"/>
<path d="M3960 3275 l0 -365 145 0 145 0 2 222 3 222 195 -222 195 -222 168 0
167 0 0 365 0 365 -145 0 -145 0 -2 -191 -3 -192 -159 192 -159 191 -203 0
-204 0 0 -365z"/>
<path d="M5230 3275 l0 -365 145 0 145 0 0 95 0 95 270 0 270 0 0 110 0 110
-270 0 -270 0 0 45 0 45 310 0 310 0 0 115 0 115 -455 0 -455 0 0 -365z"/>
<path d="M7450 3275 l0 -365 145 0 144 0 3 88 3 87 126 3 126 3 69 -90 69 -90
153 -1 c83 0 152 2 152 5 0 3 -35 49 -77 102 -52 66 -72 98 -63 101 26 9 102
87 123 127 31 58 31 183 -1 242 -29 55 -83 106 -138 132 -42 20 -60 21 -439
21 l-395 0 0 -365z m684 134 c34 -27 34 -62 -1 -88 -25 -20 -36 -21 -207 -19
l-181 3 -3 49 c-5 80 -14 76 186 76 166 0 181 -2 206 -21z"/>
<path d="M9830 3275 l0 -365 435 0 436 0 -3 93 -3 92 -287 3 -288 2 0 45 0 45
290 0 290 0 0 85 0 85 -290 0 -290 0 0 45 0 45 288 2 287 3 3 93 3 92 -436 0
-435 0 0 -365z"/>
<path d="M4230 2299 c-177 -29 -288 -109 -326 -235 -19 -64 -18 -226 2 -294
22 -73 106 -158 187 -188 200 -75 471 -62 595 28 23 16 44 30 46 30 3 0 8 -25
11 -55 l7 -55 74 0 74 0 -2 213 -3 212 -250 0 -250 0 -3 -62 -3 -63 116 0
c121 0 131 -5 72 -38 -26 -14 -57 -17 -162 -17 -146 0 -194 14 -220 66 -19 37
-19 122 0 159 27 53 65 65 201 65 115 0 122 -1 162 -27 41 -27 45 -28 192 -28
l150 0 -6 28 c-44 180 -217 273 -504 270 -58 0 -130 -4 -160 -9z"/>
<path d="M2247 2283 c-4 -3 -7 -170 -7 -370 l0 -363 368 0 c320 1 373 3 414
18 154 56 249 212 235 386 -12 145 -113 275 -244 316 -60 18 -92 20 -412 20
-191 0 -351 -3 -354 -7z m663 -248 c57 -29 76 -139 35 -202 -29 -44 -70 -53
-243 -53 -87 0 -161 2 -163 4 -2 2 -3 63 -1 135 l3 131 170 0 c130 0 177 -3
199 -15z"/>
<path d="M3430 1920 l0 -370 145 0 145 0 0 370 0 370 -145 0 -145 0 0 -370z"/>
<path d="M5120 1920 l0 -370 145 0 145 0 0 370 0 370 -145 0 -145 0 0 -370z"/>
<path d="M5584 2277 c-2 -7 -3 -60 -2 -118 l3 -104 173 -3 172 -2 0 -250 0
-250 145 0 145 0 0 250 0 250 170 0 170 0 0 120 0 120 -485 0 c-393 0 -487 -3
-491 -13z"/>
<path d="M6782 2163 c-38 -71 -118 -218 -177 -328 -59 -110 -118 -219 -132
-242 l-24 -43 165 0 164 0 31 65 30 65 183 -2 183 -3 29 -62 30 -63 163 0 164
0 -55 103 c-30 56 -119 221 -198 367 l-143 265 -172 3 -171 2 -70 -127z m287
-301 c-27 -2 -71 -2 -97 0 l-48 3 48 104 49 105 49 -105 49 -104 -50 -3z"/>
<path d="M7697 2284 c-4 -4 -7 -171 -7 -371 l0 -363 435 0 435 0 0 115 0 115
-286 2 -285 3 -2 250 -2 250 -141 3 c-77 1 -143 -1 -147 -4z"/>
</g>
</svg>
