<?xml version="1.0" standalone="no"?>
<!DOCTYPE svg PUBLIC "-//W3C//DTD SVG 20010904//EN"
 "http://www.w3.org/TR/2001/REC-SVG-20010904/DTD/svg10.dtd">
<svg version="1.0" xmlns="http://www.w3.org/2000/svg"
 width="1454.000000pt" height="1065.000000pt" viewBox="0 0 1454.000000 1065.000000"
 preserveAspectRatio="xMidYMid meet">

<g transform="translate(0.000000,1065.000000) scale(0.100000,-0.100000)"
fill="#000000" stroke="none">
<path d="M7080 10228 c-3 -3 -54 -8 -115 -12 -944 -53 -1857 -384 -2630 -956
-324 -239 -684 -591 -941 -921 -506 -646 -847 -1431 -974 -2234 -47 -300 -55
-417 -55 -780 0 -363 8 -480 55 -780 112 -712 402 -1429 816 -2021 766 -1095
1937 -1830 3247 -2039 771 -123 1599 -55 2327 191 997 337 1859 983 2464 1848
419 599 714 1337 820 2051 47 312 51 372 51 750 0 378 -4 439 -51 750 -27 184
-94 499 -110 514 -5 6 -5 5 6 -64 55 -326 76 -661 61 -972 -6 -114 -15 -246
-21 -293 -106 -850 -421 -1597 -952 -2258 -136 -170 -479 -512 -648 -646 -649
-515 -1379 -828 -2171 -930 -451 -59 -965 -44 -1394 40 -1134 222 -2119 867
-2777 1820 -225 325 -423 725 -547 1104 -516 1569 -107 3292 1059 4459 277
277 642 554 965 732 665 366 1400 554 2143 548 312 -3 617 -32 775 -76 9 -2
17 0 17 5 0 27 -476 116 -755 142 -66 6 -136 13 -155 16 -53 7 -504 17 -510
12z"/>
<path d="M10350 7098 c-19 -13 -45 -44 -58 -70 l-24 -47 -127 -40 c-69 -22
-337 -103 -596 -181 -736 -222 -853 -258 -859 -268 -2 -4 9 -47 24 -97 16 -49
40 -130 55 -178 22 -74 29 -88 43 -82 9 4 76 25 147 46 72 22 180 55 240 74
61 18 277 84 480 145 204 62 444 135 533 162 l164 50 48 -26 c101 -55 200 -20
245 86 8 21 24 42 35 48 11 6 34 29 50 52 26 35 30 50 30 102 0 41 -6 73 -19
96 -26 50 -89 91 -147 98 -27 3 -65 16 -84 28 -48 33 -133 33 -180 2z"/>
<path d="M7730 7055 c-58 -18 -233 -72 -390 -119 -356 -108 -364 -111 -394
-146 -45 -54 -44 -68 44 -362 95 -319 225 -757 343 -1156 69 -233 89 -288 112
-312 43 -45 83 -52 158 -30 198 59 600 181 782 237 30 9 62 29 82 50 41 43 43
89 8 200 -13 43 -43 141 -65 218 -65 220 -66 224 -98 330 -16 55 -84 285 -151
510 -67 226 -125 421 -130 435 -5 14 -14 44 -22 68 -8 26 -27 56 -51 77 -49
45 -86 45 -228 0z"/>
<path d="M8510 6489 c-25 -4 -85 -7 -135 -8 -49 -1 -93 -5 -97 -9 -8 -8 137
-519 153 -536 11 -12 264 137 263 155 -1 8 -13 52 -27 99 -14 47 -40 133 -58
192 -18 59 -37 109 -43 111 -6 2 -31 0 -56 -4z"/>
<path d="M6951 6000 c-53 -54 -56 -90 -17 -225 36 -123 57 -157 113 -181 42
-18 83 -18 83 0 0 7 -18 72 -39 142 -22 71 -51 165 -64 208 -13 44 -28 81 -34
83 -6 2 -25 -10 -42 -27z"/>
<path d="M6494 4749 c-16 -5 -41 -20 -55 -35 l-24 -26 -2 -506 c-3 -554 -5
-538 56 -579 l34 -23 979 0 c941 0 980 1 1016 19 46 23 60 39 105 122 187 341
558 593 989 673 121 23 128 33 128 186 0 111 -2 121 -24 147 l-24 28 -1574 2
c-887 0 -1586 -3 -1604 -8z"/>
<path d="M4575 4628 c-54 -32 -76 -93 -52 -151 9 -20 48 -69 89 -110 245 -247
655 -456 1114 -567 191 -47 413 -88 494 -93 l45 -2 0 465 0 465 -835 2 c-617
2 -840 -1 -855 -9z"/>
<path d="M6727 3434 c-3 -4 5 -28 19 -55 80 -159 71 -380 -24 -542 -119 -204
-340 -335 -697 -413 l-40 -9 0 -105 0 -105 1508 -3 1507 -2 0 109 0 110 -57
11 c-470 93 -753 357 -754 703 0 89 13 149 51 234 17 36 30 67 30 69 0 7
-1536 4 -1543 -2z"/>
</g>
</svg>
